<svg xmlns="http://www.w3.org/2000/svg" viewBox="0 0 1002 614" width="1002" height="614"><path fill="#F5F3EC" fill-rule="evenodd" d="M648.95 585.57C647.43 585.04 645.97 583.46 644.43 580.57Q643.16 579.22 642.06 577.08Q639.87 572.81 636.87 562.4Q635.6 558.02 635.12 553.87C634.34 551.35 633.77 549.2 632.32 543.57C631.78 541.47 631.32 539.8 630.89 538.39Q630.56 537.9 630.2 537.36Q627.38 533.1 626.92 530.53C626.75 530.32 626.58 530.1 626.4 529.88C623.56 526.33 618.11 523.43 614.24 523.41C612.92 523.4 612.41 523.58 609.24 525.14C607.29 526.1 605.08 527.13 604.32 527.44C603.57 527.74 602.22 528.31 601.32 528.69C598.74 529.8 594.85 530.9 592.56 531.17C587.77 531.73 587.03 532.29 585.41 536.61C583.78 540.93 580.95 545.15 578.69 546.62C578 547.07 577.11 547.81 576.7 548.28C574.65 550.59 570.04 553.1 565.82 554.19C562.47 555.06 558.43 555.2 554.95 554.56C553.85 554.35 552.05 554.07 550.95 553.93C549.57 553.75 548.37 553.4 547.07 552.78C544.86 551.73 540.99 550.45 539.99 550.45C539.18 550.44 538.47 551.1 536.86 553.37C535.65 555.09 533.59 556.97 531.11 558.63C529.03 560.03 523.34 562.78 521.4 563.33C520.6 563.55 519.05 564.01 517.95 564.35C511.54 566.33 501.28 565.17 495.89 561.85C494.68 561.11 493.1 560.2 492.36 559.83C487.48 557.38 482.64 552.15 480.18 546.69C478.37 542.66 476.91 540.48 475.87 540.23C475.36 540.12 474.2 539.83 473.28 539.6C472.37 539.38 471.38 539.19 471.1 539.19C469.3 539.19 462.14 535.97 459.63 534.03C455.9 531.15 452.68 527.36 450.82 523.68C448.7 519.5 448.13 511.31 449.56 505.88C450.59 501.98 450.61 501.94 452.2 498.44L452.21 498.42C454.36 493.7 454.36 493.7 454.17 493.11C454.08 492.81 453.68 492.09 453.28 491.51C451.02 488.21 448.82 482.05 448.61 478.42C448.44 475.56 448.14 474.86 447.17 474.99C446.54 475.07 437.3 484.49 434.26 488.16C432.02 490.85 425.4 497.62 420.43 502.31C416.23 506.26 413.86 507.83 407.07 511.15C401.65 513.8 395.34 515.75 390.32 516.34C389.57 516.43 388.27 516.65 387.45 516.84C383.42 517.76 360.32 517.84 356.07 516.95C355.45 516.82 353.94 516.59 352.7 516.45C349.78 516.1 345.21 515.04 341.27 513.79C337.27 512.52 329.97 508.84 326.45 506.32C324.53 504.95 305.06 485.61 302.29 482.33C301.14 480.96 298.12 477.64 295.57 474.96L294.78 474.12L294.78 474.12C288.54 467.55 287.97 466.95 287.42 466.96C287.34 466.96 287.26 466.97 287.17 466.99C286.29 467.09 286.15 467.37 284.71 471.95C283.87 474.63 283.24 476.13 282.3 477.65C280.56 480.49 280.5 481.29 281.7 485.69C283.41 491.96 283.21 497.21 281 504.06C279.71 508.05 277.97 510.86 275.01 513.73C273.1 515.59 268.63 518.8 266.41 519.91C265.04 520.59 264.54 521.27 263.7 523.61C261.37 530.13 257.42 536.89 253.73 540.66C245.27 549.32 233.15 552.51 221.35 549.18C217.01 547.95 216.42 548.18 214.4 551.9C212.15 556.05 208.21 560.68 205.16 562.77C203.94 563.6 200.98 564.74 198.21 565.44C195.58 566.11 187.45 566.17 185.31 565.54C180.9 564.25 176.5 560.89 172.26 555.57C168.57 550.94 168.35 550.88 163.95 553.21C160.9 554.83 156.47 556.86 153.89 557.84C153.03 558.17 150.67 559.21 148.64 560.16C144.44 562.13 140.17 563.6 135.45 564.69C133.66 565.11 131.58 565.63 130.82 565.84C129.9 566.1 128.25 566.25 125.82 566.27C122.49 566.31 122.04 566.26 120.2 565.64C115.52 564.07 109.2 559.93 105.71 556.16C104.15 554.47 101.05 548.66 100.71 546.75C100.43 545.23 99.33 543.03 98.68 542.68C98 542.32 95.08 542.62 92.07 543.35C86.78 544.64 79.04 543.45 73.62 540.51C70.53 538.83 65.68 534.67 63.65 531.94C61.46 529.01 59.27 523.61 58.81 520C58.43 516.98 58.02 516.52 55.18 515.94C52.02 515.3 45.84 513.24 43.55 512.06C40.74 510.61 35.92 506.53 34.9 504.71C34.54 504.08 33.49 502.27 32.56 500.69C28.47 493.7 27.16 486.94 28.52 479.82C29.14 476.58 29.67 475.02 32.06 469.35C34.14 464.42 35.16 462.76 38.35 459.16C44.42 452.29 44.5 452.06 41.81 449.43C40.26 447.91 39.87 447.32 38.56 444.56C34.27 435.48 34.87 427.56 40.5 419C43.87 413.87 47.28 411.47 52.12 410.82C54.46 410.51 54.97 409.36 54.38 405.79C53.82 402.4 53.85 394.61 54.43 392.07C55 389.58 56.1 386.75 57.22 384.91C58.29 383.14 58.36 382.19 57.41 382.19C56.23 382.19 49.55 385.89 48.56 387.09C47.94 387.83 46.22 390.93 45.62 392.36C45.11 393.56 45.07 394.08 45.07 399.11C45.07 405.01 44.99 405.69 44.34 405.69C42.9 405.69 41.95 399.21 42.55 393.44C42.79 391.09 42.95 390.55 44.06 388.26C47.98 380.16 51.75 377.19 61.31 374.68C62.74 374.31 64.07 373.02 64.07 372C64.07 371.59 63.38 369.53 62.53 367.41C61.19 364.05 59.42 358.61 58.82 355.94L58.06 352.62C57.04 348.15 57.85 340.62 59.91 335.38C60.9 332.88 63.14 328.76 64.7 326.57C66.19 324.47 71.2 319.28 72.97 318C74.39 316.97 78.73 314.93 81.33 314.06C83.69 313.28 83.82 312.27 82.2 307.55C81.58 305.76 80.96 303.45 80.82 302.43C80.69 301.4 80.46 300.12 80.33 299.57C80 298.23 80.01 293.65 80.34 292.78C80.48 292.39 80.77 291.29 80.97 290.33C81.88 286.03 87.25 279.64 92.67 276.43C97.65 273.47 100.96 270.37 102.51 267.2C103.15 265.91 103.18 265.68 103.11 262.58C103 256.88 103.54 251.78 104.68 247.94C105.02 246.77 105.54 244.97 105.83 243.94C106.49 241.57 107.75 238.96 109.06 237.21C110.77 234.92 110.29 234.06 107.41 234.24C104.74 234.41 100.5 236.73 98.39 239.19C95.06 243.06 93.22 248.08 92.96 254C92.76 258.78 92.57 260.79 92.34 260.53C92.24 260.41 91.9 259.64 91.59 258.82C91.08 257.46 91.01 256.74 90.89 251.44C90.8 247.15 90.77 245.99 91.02 244.9C91.12 244.5 91.25 244.11 91.43 243.57C93.21 238.31 95.53 235.27 100.29 231.94L103.48 229.72C104.27 229.16 105.37 228.81 111.75 227.05C114.61 226.27 117.71 224.88 118.7 223.95C120.05 222.67 121.35 221.94 122.29 221.93C124.31 221.91 125.78 220 127.09 215.7C127.64 213.88 127.65 213.71 127.44 206.71L127.44 206.59C127.23 199.7 127.18 197.99 127.5 196.36C127.61 195.81 127.76 195.27 127.95 194.55C128.33 193.18 128.72 191.48 128.83 190.76C129.38 187.14 133.67 182.43 137.64 181.09C139.34 180.52 142.27 178.82 143.45 177.72C144.62 176.63 146.07 175.49 148.32 173.89C151.82 171.42 151.82 170.81 148.35 171.07C146.11 171.23 143.39 171.99 140.79 173.17C139.91 173.57 138.54 174.01 137.75 174.16C135.94 174.5 135.76 174.59 132.48 177.03C129.04 179.59 125.88 183.48 123.27 188.39C121.22 192.22 120.32 198.93 121.4 202.4C121.62 203.14 121.93 204.89 122.07 206.3C122.21 207.71 122.5 209.8 122.7 210.96C123.51 215.55 123.01 218.61 121.49 218.39C120.9 218.31 120.84 218.2 119.04 214.07C115.67 206.29 115.33 204.41 115.78 195.69C116.07 189.84 117.01 185.69 119.11 180.94C120.54 177.7 121.01 177 123.67 174.07C125.79 171.75 127.03 170.85 130.9 168.85C132.37 168.08 134.06 167.14 134.64 166.74C135.74 166 137.69 165.12 144.43 162.32C150.89 159.63 156.02 156.04 157.42 153.22C159.31 149.43 159.29 149.61 159.4 138.19C159.49 127.82 159.49 127.82 160.29 125.1C161.7 120.31 164.58 115.6 170.13 109C173.44 105.07 179.53 102.44 186.78 101.82C187.79 101.73 189.36 101.5 190.28 101.3C191.2 101.11 192.57 100.95 193.34 100.95C196.1 100.94 202.2 98.83 204.75 97.01C205.47 96.49 206.62 95.67 207.31 95.19C208.56 94.32 210.1 92.64 211.04 91.12C211.7 90.05 214.46 83.82 215.94 80.06C217.33 76.52 219.98 71.32 221.29 69.57C221.81 68.88 222.85 67.36 223.62 66.19C227.22 60.7 233.59 56.44 243.8 52.7C248.28 51.05 249.69 50.86 257.7 50.85C263.98 50.84 265.11 50.9 266.2 51.28C267.04 51.57 268.58 51.76 270.95 51.86C274.23 51.99 274.6 51.96 276.93 51.32C279.94 50.49 283.68 48.78 286.65 46.85C287.87 46.07 289.66 45.03 290.64 44.53C291.62 44.04 293.22 43.1 294.19 42.45C299.71 38.75 309.24 34.41 313.17 33.82C313.74 33.73 314.99 33.51 315.95 33.32C324.35 31.68 337.18 31.87 343.45 33.72C344.82 34.12 346.68 34.57 347.57 34.71C348.46 34.86 349.7 35.2 350.32 35.48C350.94 35.75 352.29 36.29 353.32 36.67C354.35 37.06 356.94 38.29 359.07 39.42C367.19 43.72 368.77 44.27 370.26 43.3C371 42.82 373.7 40.44 376.8 37.54C381.63 33.01 388.85 29.4 394.46 28.69C395.56 28.56 397.07 28.32 397.82 28.16C399.38 27.84 402.66 28.01 406.32 28.59C408.19 28.89 409.24 29.23 411.2 30.2C414.1 31.62 419.5 34.73 421 35.83C422.28 36.77 425.08 40.21 425.9 41.85C428.97 47.96 429.24 48.12 433.7 46.53C439.34 44.52 440.58 44.15 443.45 43.56C447.08 42.81 453.12 42.68 455.22 43.31C455.9 43.51 457.3 43.8 458.33 43.94C460.52 44.25 462.2 44.71 464.95 45.74C466.05 46.15 467.28 46.61 467.7 46.76C469.05 47.23 474.18 49.91 475.38 50.76C476.83 51.79 483.26 58.5 484.08 59.84C484.41 60.38 485.45 61.83 486.38 63.07C488.53 65.91 489.94 68.63 491.53 73.07C494.45 81.18 495.51 83.15 498.43 85.88C500.98 88.28 502.03 88.67 506.6 88.96C508.72 89.09 511.12 89.31 511.95 89.44C512.77 89.58 513.96 89.69 514.6 89.69C517.73 89.69 522.6 91.76 526.32 94.66C529.1 96.82 532.62 100.12 533.9 101.76C534.46 102.48 535.35 103.55 535.88 104.13C539.98 108.7 542.03 120.08 540.47 129.69C540.01 132.57 540.01 132.57 540.54 134.46C540.83 135.5 541.07 136.66 541.07 137.04C541.07 137.48 541.31 137.92 541.74 138.27C542.11 138.57 543.49 139.89 544.8 141.19C547.41 143.79 550.99 145.95 555.1 147.42C559.07 148.83 563.57 151.86 565 154.07C565.44 154.76 566.49 156.13 567.34 157.11C569.33 159.43 569.78 160.14 570.88 162.6C572.75 166.82 573.54 171.78 573.36 178.19C573.29 180.72 573.49 181.76 574.58 181.31Q576.17 178.63 578.53 176.01L578.64 175.89L578.75 175.77Q582.49 171.62 584.26 170.81Q585.2 170.38 587.2 170.16C591.05 166.91 592.37 165.77 594.2 164.19C598.68 160.3 602.58 157.5 611.95 151.43L612.37 151.16Q612.57 150.4 612.83 149.99Q613.8 148.52 617.77 147.71C620.75 145.86 622.26 145.1 625.2 143.73C628.23 142.32 631.13 141.16 633.99 140.22Q634.27 140.01 634.56 139.82Q636.85 138.3 642.07 136.96Q649.9 134.94 653.43 134.94Q654.59 134.94 657.18 134.47Q660.03 133.94 661.44 133.94Q662.58 133.94 665.22 133.46Q667.52 133.04 680.26 132.99C685.51 132.79 690.68 132.72 692.87 132.9C693.31 132.94 693.84 132.98 694.42 133.03Q703.26 133.08 705.3 133.17Q708.28 133.3 709.96 134.08Q710.01 134.11 710.06 134.13C711.83 134.3 714.41 134.48 716.2 134.54C717.79 134.6 719.88 134.75 721.4 134.92Q722.73 134.94 724.21 134.96Q737.4 135.1 740.71 135.97Q743.67 136.76 747.89 136.95Q754.18 137.25 759.67 139.38Q762.44 140.46 763.78 140.89Q765.99 141.6 770.21 144.1Q773.43 146.02 774.31 146.99Q775.17 147.94 775.65 149.9C776.4 150.38 777.1 150.86 777.75 151.33C778.53 151.9 779.34 152.46 780.1 152.95Q780.23 152.96 780.36 152.96Q785.57 153.21 788.37 155.13Q790.62 156.66 791.2 158.44Q791.4 159.02 791.53 160.09C793.08 161.29 794.35 162.41 794.88 163.11C795.26 163.61 796.03 165.43 796.59 167.16C797.28 169.26 798.02 171.11 798.92 172.87Q799.83 173.61 800.61 174.62Q802.32 176.81 803.38 179.56C804.86 181.36 806.64 183.31 808.83 185.57C810.84 187.63 813.1 190.08 814.21 191.37Q815.35 191.65 815.93 192.08Q817.19 193 817.84 195.78C820.51 198.99 822.81 202.48 824.52 205.93C825.23 207.35 825.63 208.17 825.86 209.03C826.18 210.24 826.17 211.53 826.12 214.6C826.07 217.95 826.15 220.29 826.32 220.94C826.59 221.93 827.29 223.17 830.94 229.07C837.33 239.38 842.77 250.65 843.34 254.75C844.25 261.26 843.9 263.22 840.2 272.69C837.48 279.62 838.94 283.44 846.55 289.39C858.34 298.6 861.46 301.52 866.21 307.82C869.44 312.1 874.02 320.08 875.9 324.7C876.37 325.86 877.18 327.72 877.7 328.82C880.77 335.41 882.95 341.55 883.49 349.94C883.99 357.76 884.09 357.64 884.23 360.32C884.34 362.45 884.24 364.16 883.85 365.69C892.49 361.06 902.35 358.44 912.82 358.44C946.77 358.44 974.32 386 974.32 419.94C974.32 453.88 946.77 481.44 912.82 481.44C883.37 481.44 858.73 460.7 852.72 433.04C852.32 431.95 851.89 428.88 851.45 427.94C850.48 425.86 850.53 425.86 849.56 424.72C849.25 425.61 848.54 426.73 847.22 428.65C843.81 433.61 842.51 436.4 842.37 439.03C842.27 440.97 842.32 441.22 843.43 444.18C844.07 445.9 844.7 447.42 844.82 447.56C844.94 447.71 845.48 448.67 846.02 449.7C846.55 450.73 847.51 452.52 848.14 453.69C849.74 456.67 850.23 458.5 850.44 462.19C850.84 469.43 849.18 474.29 844.62 479.23C842.01 482.06 835.97 484.86 831.2 485.46C824.65 486.28 819.35 485.89 811.82 484.04C810.93 483.82 809.47 483.49 808.57 483.31C806.46 482.89 803.01 481.91 800.24 480.95C796.01 479.47 786.37 476.84 781.82 475.9C778.13 475.15 765.95 475.07 763.07 475.78C762.18 476 760.94 476.19 760.32 476.19C759.12 476.19 754.06 477.17 751.26 477.94C742.02 480.49 727.95 488.4 715.29 498.18C714.14 499.06 712.02 500.67 710.57 501.74C709.13 502.81 707.1 504.36 706.07 505.19C698.39 511.33 691.66 514.98 684.82 516.69C683.65 516.99 682.43 517.4 682.11 517.61C682.07 517.63 682.03 517.66 681.99 517.7Q681.2 520.17 680.77 521.82Q680.18 524.1 679.11 526.24Q678.19 528.06 677.76 530.24Q676.36 537.23 672.37 545.71Q671.84 546.83 669.76 551.32Q657.04 578.77 654.91 581.74C654.09 583.31 653.48 584.41 653.25 584.64C652.04 585.94 650.78 586.21 648.95 585.57ZM665.88 544.82C667.35 542 668.79 538.62 671.08 532.55C673.38 526.47 673.55 525.95 675.45 518.94C676.32 515.71 677.22 512.65 677.43 512.13C677.92 510.99 678.82 507.16 678.82 506.26C678.82 505.31 678.17 504.74 676.59 504.28C675.02 503.82 673.47 502.48 673.18 501.32C673 500.64 673.25 499.36 674.21 495.94C675.26 492.2 673.1 488.63 668.9 487.15C665.86 486.08 664.07 486.3 662.82 487.87C661.71 489.28 662.54 492 665.56 496.82C666.89 498.95 667.51 500.82 667.74 503.46C667.94 505.65 667.15 506.69 665.18 506.87C661.54 507.21 658.75 504.4 656.37 498C655.47 495.57 655.47 495.57 655.46 491.32C655.45 487.62 655.53 486.75 656.05 484.69C657.37 479.49 658.67 478.2 662.83 477.99C667.22 477.77 671.54 478.96 675.61 481.52C677.63 482.79 677.73 482.9 680.12 486.5C682.14 489.53 682.68 490.19 683.17 490.19C683.99 490.19 684.18 489.89 684.95 487.32C685.57 485.25 686.37 482.96 688.72 476.44C690.19 472.36 690.01 472.15 686.18 473.46C680.47 475.41 675.55 473.21 672.9 467.51C671.92 465.4 671.68 463.35 672.17 461.16C673.04 457.23 674.79 456.04 678.17 457.07C679.57 457.49 683.03 457.56 684.31 457.2C685.43 456.88 686.31 456 687.98 453.57C688.73 452.47 689.79 450.96 690.33 450.22C693.55 445.8 692.75 440.25 688.75 439.17C686.62 438.6 684.93 439.19 682.8 441.26C680.87 443.13 678.26 443.96 676.78 443.17C675.51 442.49 674.67 438.16 675.3 435.52C675.88 433.1 679.42 429.62 682.51 428.42C683.54 428.02 684.67 427.83 686.5 427.75C689.62 427.61 691.25 428.05 693.29 429.59C697.7 432.9 698.62 433.65 700.35 435.36C703.36 438.33 703.81 438 706.09 431.19C707.34 427.46 707.54 425.58 706.98 422.84C706.75 421.77 706.57 419.78 706.57 418.43C706.57 416.05 706.6 415.92 707.59 413.99C708.95 411.34 710.17 410.09 711.89 409.59C712.63 409.38 713.44 408.98 713.68 408.71C714.24 408.09 716.8 399.36 718.48 392.37C718.67 391.57 719.5 388.89 720.33 386.42C721.78 382.08 722.17 380.7 723.81 373.94L723.98 373.23C725.18 368.27 725.51 366.93 725.16 365.79C725.01 365.32 724.75 364.88 724.38 364.23C724.03 363.61 723.81 363.22 723.68 362.8C723.46 362.1 723.47 361.33 723.5 359.27V359.27C723.64 351.11 726.67 344.45 731.55 341.6C733.78 340.3 733.84 340.15 736.06 330.94C737.12 326.57 738.27 322.39 739.35 319.02C739.88 317.35 740.32 315.81 740.32 315.6C740.32 315.38 740.76 314 741.3 312.51C741.83 311.03 742.64 308.69 743.08 307.32C744.11 304.11 746.14 298.78 748.06 294.23C750.22 289.11 750.12 288.49 746.92 287.44C743.4 286.29 740.12 283.78 738.98 281.36C735.92 274.86 735.12 266.8 737.25 263.98C738.7 262.06 740.58 261.67 742.15 262.97C743.35 263.96 743.84 264.94 744.82 268.32C746 272.39 746.95 274.01 749.71 276.68C751.24 278.15 752.24 278.94 752.61 278.94C753.17 278.94 754.32 278.05 754.32 277.62C754.32 277.49 755.15 275.63 756.16 273.48C758.62 268.27 759.38 266.13 759.08 265.33C758.77 264.52 757.53 263.92 754.27 262.98C751.03 262.06 750.68 261.88 750.06 260.86C748.74 258.7 750.58 254.46 753.44 253.06C756.01 251.8 759.45 252.07 763.33 253.82C765.86 254.96 766.09 254.94 767.74 253.38C768.9 252.28 775.59 242.77 776.8 240.49C777.54 239.09 776.07 238.86 772 239.74C768.03 240.6 762.91 240.56 761.19 239.65C759.39 238.7 757.78 236.86 756.63 234.42C754.91 230.78 754.7 229.91 754.7 226.52C754.7 223.22 754.86 222.74 756.38 221.61C758.04 220.37 761.79 221.17 762.77 222.97C763.43 224.21 766.83 228.67 767.41 229.08C768.12 229.57 769.58 229.53 770.24 229C770.53 228.76 771.47 227.55 772.33 226.32C775.45 221.81 778.2 219.19 779.8 219.19C782.64 219.19 784.67 222.45 785.06 227.63C785.37 231.76 785.89 232.03 788.85 229.59C789.73 228.87 791.46 227.68 792.7 226.95C796.91 224.46 797.13 224.1 796.2 221.44C795.52 219.52 796 216.02 797.3 213.48C797.9 212.32 800.79 209.53 801.87 209.08C804.77 207.87 808.59 208.81 809.73 211C810.35 212.21 810.23 213.61 809.32 215.53C808.17 217.96 808.61 218.59 810.93 217.86C811.65 217.63 813.9 217.22 815.94 216.94C820.3 216.35 820.81 216.1 820.82 214.49C820.82 213.24 819.64 211.08 817.94 209.23C814.71 205.72 813.37 203.22 813.05 200.1C812.66 196.29 812.1 195.88 807.55 196.11C803.8 196.29 803.37 196.21 802.03 195C800.21 193.37 799.72 191.87 799.77 188.15C799.8 186.46 799.81 185.67 799.59 184.96C799.39 184.34 799.02 183.77 798.33 182.72C797.51 181.47 796.61 180 796.33 179.45C795.64 178.1 794.37 176.69 793.83 176.69C793.59 176.69 792.69 177.48 791.84 178.44C789.49 181.08 787.92 181.88 783.73 182.55C780.7 183.04 779.26 183.04 775.9 182.54C771.45 181.88 769.08 180.61 768.04 178.33C767.26 176.6 767.65 175.15 769.36 173.52C770.64 172.3 771.3 172.15 777.07 171.82C784.29 171.41 784.86 171.11 786.09 167.2C787.5 162.66 787.01 161.41 782.82 158.92C780.37 157.47 779.81 157.57 778.32 159.76C777.02 161.67 776.14 162.46 773.54 164.07C770.64 165.86 768.9 165.51 767.51 162.85C766.54 160.99 766.73 159.3 768.26 156.06C769.79 152.84 769.87 152.17 768.83 151.2C768.17 150.58 761.7 147.61 758.82 146.61C754.06 144.94 746.25 142.77 743.34 142.31C742.02 142.1 739.65 141.58 738.07 141.16C735.96 140.6 734.27 140.34 731.7 140.18C729.77 140.06 727.13 139.89 725.82 139.8C723.05 139.61 722.68 139.81 721.95 141.86C719.7 148.19 716.99 149.97 712.21 148.28C709.63 147.37 708.58 144.87 709.36 141.48C709.69 140.06 709.3 139.11 708.24 138.71C707.26 138.34 692.21 137.85 691.62 138.17C691.33 138.32 690.58 139.12 689.94 139.95C688.57 141.73 684.48 145.44 683.23 146.04C679.98 147.58 675.82 146.86 673.08 144.3C671.57 142.89 671.14 141.76 671.55 140.3C672.06 138.48 671.01 138.13 667.07 138.81C665.9 139.01 663.38 139.29 661.47 139.44C659.56 139.59 657.92 139.75 657.83 139.81C657.75 139.86 656.44 140.04 654.93 140.19C653.43 140.35 651.63 140.62 650.95 140.81C650.26 140.99 649.25 141.21 648.7 141.3C648.15 141.39 646.12 141.91 644.2 142.46C642.27 143.01 640.05 143.64 639.26 143.86C636.7 144.59 635.34 146 635.33 147.96C635.32 148.84 634.34 152.66 633.91 153.52C633.3 154.7 632.19 155.19 630.09 155.19C627.57 155.19 626.41 154.61 624.78 152.53C623.07 150.36 622.67 150.37 618.68 152.66C614.52 155.05 614.36 155.75 617.57 157.46C620.41 158.97 625.67 163.76 627.66 166.63C630.38 170.57 628.73 173.25 623.57 173.29C620.25 173.31 616.94 171.92 613.98 169.26C611.79 167.29 608.04 166.38 606.4 167.41C605.36 168.07 604.97 169.46 605.16 171.82C605.39 174.59 604.98 178.23 604.28 179.47C603.41 181.03 602.37 181.5 600.07 181.37C596.44 181.18 594.41 179.32 593.19 175.06C592.88 173.97 592.62 173.26 592.26 172.95L592.23 172.95Q591.66 172.95 591.14 172.96C590.4 173.34 589.35 174.3 587.71 175.88C585.9 177.63 583.57 179.85 582.53 180.82C580.44 182.75 579.62 184.13 577.96 188.57C576.19 193.29 574.07 196.65 570.05 201.1C568.88 202.4 568.7 203.43 568.9 207.68C569.07 211.13 569.21 211.78 570.48 215.04C571.54 217.73 572.23 218.69 573.7 219.47C575.59 220.47 575.68 220.29 575.71 215.29C575.75 208.99 576.68 206.17 580.75 199.98C584.23 194.7 586.91 192.6 590.2 192.59C593.72 192.58 595.23 194.28 595.02 198.02C594.85 201.21 593.55 203.21 590.26 205.38C587.27 207.34 585.32 211.21 585.32 215.17C585.32 217.17 586.73 218.44 588.96 218.44C591.27 218.44 592.32 217.56 594.45 213.82C595.96 211.18 597.01 209.88 598.12 209.3C599.11 208.78 600.9 208.84 601.61 209.42C602.95 210.51 601.96 217.33 599.87 221.31C598.29 224.32 595.55 226.66 590.67 229.16C586.97 231.05 586.9 231.4 589.59 234.45C591.58 236.71 592.58 238.28 594.43 242.07C597.39 248.14 598.53 250.84 598.81 252.45C599.58 256.86 600.03 257.46 603.19 258.35C607.32 259.51 610.19 261.08 613.99 264.24C616.36 266.2 616.96 266.97 617.29 268.4C617.99 271.52 615.95 273.85 612.71 273.65C610.89 273.53 609.6 272.94 605.66 270.45C602.17 268.24 601.76 268.21 600.95 270.04C600.62 270.78 600.16 272.05 599.93 272.85C599.7 273.66 599.3 274.73 599.04 275.24C598.3 276.71 598.38 279.52 599.19 280.33C599.8 280.94 599.82 280.94 603.37 280.79C607.48 280.61 608.62 280.81 609.71 281.95C610.63 282.92 610.68 284.93 609.83 286.85C608.56 289.74 604.53 292.2 599.7 293.05C598.49 293.26 597.3 293.61 597.06 293.83C595.64 295.11 596.66 297.55 600.55 302.14C605.32 307.76 608.31 313.81 610.99 323.32C611.99 326.87 611.99 334.07 610.99 337.46C610.38 339.5 610 341.43 609.69 344C609.46 345.87 606.72 351.12 604.25 354.42C600.85 358.95 600.64 359.71 602.52 360.66C604.51 361.68 605.2 362.74 607.34 368.1C608.04 369.87 609.03 371.89 609.53 372.59C610.96 374.59 619.1 382.9 619.92 383.19C620.32 383.33 621.84 383.45 623.3 383.46C628.01 383.48 628.96 384.29 628.75 388.07C628.68 389.3 628.37 391.28 628.07 392.47C627.53 394.54 627.52 394.68 627.91 396.47C628.12 397.48 628.53 399.39 628.8 400.69C631.16 411.83 630.27 419.86 625.7 428.8C623.64 432.82 623.64 432.82 623.33 435.66C622.79 440.65 620.94 444.83 618.07 447.53C617.13 448.42 616.19 449.41 615.98 449.73C615.53 450.42 614.95 453.03 614.7 455.53C614.6 456.53 614.22 457.98 613.78 458.99C613.33 460.07 612.99 461.38 612.9 462.4C612.72 464.64 612.96 464.85 615.95 464.99C620.53 465.21 622.61 467.5 623.09 472.82C623.76 480.29 624.18 483.26 625.08 486.77C626.34 491.66 626.51 491.83 628.57 490.43C633.96 486.77 639.1 486.62 640.75 490.06C641.32 491.26 641.02 491.99 639.39 493.35C638.59 494.01 637.26 495.19 636.43 495.98C634.47 497.81 632.91 498.33 629.94 498.12C626.86 497.9 625.82 498.79 625.82 501.66C625.82 503.23 626.58 504.14 629.18 505.69C630.08 506.23 631.14 507.18 631.95 508.19C632.67 509.09 633.88 510.41 634.65 511.13C635.96 512.36 636.12 512.44 637.33 512.44C638.47 512.44 638.73 512.34 639.47 511.59C640.32 510.74 640.32 510.74 640.33 508.28C640.34 503.12 640.9 499.7 641.93 498.51C642.66 497.67 644.41 497.62 646.14 498.4C648.22 499.33 648.86 500.54 649.33 504.43C649.93 509.49 649.34 513.35 647.4 516.94C645 521.37 643.6 522.32 639.45 522.32C636.99 522.32 636.9 522.29 634.45 521.15C633.07 520.51 631.19 519.75 630.28 519.47C627.64 518.67 626.59 518.02 624.38 515.78C621.47 512.83 620.84 512.92 618.96 516.52C617.25 519.81 618.01 521.02 622.45 522.05C625.35 522.71 626.69 523.53 629.46 526.3C632.11 528.95 633.3 530.71 634.82 534.27C636.19 537.48 636.87 537.51 640.27 534.5C644.18 531.04 646.2 530.25 649.33 530.92C654.41 532.01 659 536.61 661.97 543.58C663.86 548 664.16 548.1 665.88 544.82ZM385.95 512.11C386.91 511.89 388.65 511.53 389.82 511.3C394.33 510.44 395.42 510.17 398.75 509.04C403.95 507.29 409.43 504.53 412.32 502.21C412.94 501.72 414.12 500.8 414.93 500.19C417.42 498.31 430.39 485.07 436.92 477.75C442.33 471.67 444.78 468.96 447.7 465.82C449.49 463.89 451.8 461.3 452.82 460.07C453.84 458.83 455.86 456.58 457.31 455.07C458.76 453.55 461.07 450.9 462.45 449.17C467.81 442.41 468.49 441.55 469.78 439.86C475.77 431.98 481.4 420.53 483.19 412.57C483.38 411.74 483.7 410.34 483.92 409.44C484.85 405.58 485.3 403.19 485.42 401.43C485.5 400.4 485.73 398.73 485.94 397.73C486.15 396.73 486.32 395.47 486.32 394.94C486.32 394.41 486.55 393.04 486.82 391.89C487.09 390.75 487.32 389.33 487.32 388.74C487.32 388.15 487.54 386.57 487.8 385.24C488.07 383.91 488.35 382.05 488.44 381.11C488.52 380.16 488.76 378.76 488.96 377.99C489.16 377.22 489.33 375.79 489.33 374.83C489.34 373.86 489.46 372.56 489.59 371.94C489.73 371.32 489.95 369.97 490.09 368.94C490.41 366.58 491.67 359.99 492.34 357.19C492.62 356.02 492.96 354.34 493.1 353.44C493.48 351.08 494.51 346.45 495.82 341.19C496.08 340.16 496.37 338.75 496.46 338.07C496.56 337.38 496.75 336.54 496.88 336.19C497.12 335.54 497.51 331.9 497.8 327.44C497.85 326.68 497.95 325.8 498.06 324.99Q495.11 327.81 494.21 328.47Q480 338.91 476.84 338.94L477 338.94Q476.82 339 476.51 339.12Q475.82 339.39 474.96 339.77Q472.72 340.76 470.73 341.32Q465 342.94 463.67 342.94Q463.16 342.94 461.61 343.38L459.86 343.88Q459.66 343.94 459.45 343.94H443.2Q442.99 343.94 442.78 343.88L441.03 343.38Q439.5 342.94 439.09 342.95Q437.16 342.97 429.67 340.58L425.85 339.37Q425.74 339.33 425.63 339.28L421.95 337.42Q417.54 335.2 412.52 331.53Q410.77 330.25 405.64 325.12Q400.52 320 399.24 318.24Q395.6 313.26 394.56 311.25Q393.97 310.09 393.08 308.78Q389.01 302.79 386.93 296.46Q386.47 295.04 385.49 293.16L384.57 291.4L381.98 288.93L378.11 287.07H375.54L371.66 288.93L369 291.47L364.49 300.49Q359.82 309.81 358.54 311.86L357.82 313.03L356.51 315.15Q354.76 318.04 349.47 323.67Q344.19 329.29 341.12 331.53Q336.1 335.2 331.7 337.42L328.02 339.28Q327.91 339.33 327.8 339.37L323.97 340.58Q316.48 342.97 314.56 342.95Q314.15 342.94 312.61 343.38L310.86 343.88Q310.66 343.94 310.45 343.94L292.94 343.91Q292.71 343.91 292.49 343.84L291.36 343.47Q290.36 343.15 288.75 342.94Q286.86 342.69 281.77 341L276.81 339.35Q276.71 339.32 276.61 339.27L273.07 337.49Q269.45 335.68 267.98 334.69Q266.68 333.8 265.64 333.28Q262.36 331.61 258.5 328.28Q257.72 327.61 257.1 327.13L257.25 326.94Q256.29 326.94 248.43 319.05Q243.66 314.25 241.59 312.01C241.56 313.1 241.45 314.16 241.21 314.93C240.25 318.08 240.17 319.53 240.8 322.99C241.09 324.6 241.32 326.65 241.32 327.54C241.32 328.43 241.55 330.1 241.82 331.24C242.09 332.38 242.32 333.71 242.31 334.19C242.31 334.67 242.53 336.02 242.81 337.19C243.08 338.36 243.54 340.5 243.82 341.94C244.11 343.39 244.57 345.52 244.84 346.69C245.11 347.86 245.33 349.03 245.33 349.29C245.33 349.55 245.54 350.73 245.81 351.92C246.08 353.1 246.54 355.25 246.83 356.69C247.12 358.14 247.58 360.25 247.84 361.39C248.11 362.53 248.32 363.82 248.33 364.26C248.33 364.71 248.55 365.97 248.82 367.07C249.09 368.17 249.32 369.75 249.32 370.58C249.32 371.41 249.49 372.72 249.69 373.49C249.89 374.26 250.16 375.71 250.3 376.73C250.56 378.63 251.08 381.52 251.71 384.57C251.91 385.53 252.17 387.27 252.3 388.44C252.43 389.61 252.65 390.86 252.79 391.22C252.92 391.58 253.11 392.71 253.2 393.72C253.3 394.74 253.59 396.43 253.85 397.48C254.11 398.54 254.32 399.94 254.32 400.6C254.32 401.26 254.54 402.7 254.8 403.81C256 408.9 256.32 410.4 256.32 410.84C256.33 411.29 257.25 414.59 258.28 417.82C260.31 424.19 264.65 432.29 269.37 438.49C269.96 439.28 270.95 440.61 271.57 441.45C272.19 442.29 273.51 443.9 274.51 445.02C275.51 446.15 277.16 448.08 278.17 449.32C279.19 450.55 283.3 454.94 287.32 459.07C291.33 463.19 295.41 467.52 296.39 468.69C297.37 469.86 301.89 474.59 306.44 479.19C310.98 483.8 315.83 488.86 317.2 490.43C323.13 497.23 327.3 501 332.31 504.08C338.97 508.18 350.93 511.88 359.32 512.44C364.76 512.8 383.97 512.57 385.95 512.11ZM686.98 510.8C687.92 510.44 689.93 509.44 691.45 508.58C692.96 507.71 694.7 506.75 695.32 506.44C698.65 504.76 705.15 500.1 712.47 494.16C718.56 489.21 727.38 483.56 733.66 480.57C744.59 475.38 750.71 473.11 755.19 472.6C756.01 472.5 757.25 472.26 757.94 472.07C758.63 471.87 760.27 471.59 761.57 471.45C762.88 471.31 764.74 471.09 765.7 470.95C768.72 470.53 773.9 470.63 777.7 471.19C788.63 472.81 788.41 472.76 795.57 475.06C798.45 475.98 798.96 476.12 805.45 477.81C807.37 478.31 809.45 478.86 810.07 479.05C814.85 480.47 821.41 481.54 824.45 481.38C829.39 481.13 834.43 480.07 837.21 478.7C842.32 476.2 845.23 471.58 845.51 465.57C845.76 460 845.16 457.78 841.99 452.5C838 445.85 837.32 443.95 837.32 439.25C837.32 435.86 837.84 433.37 838.91 431.62C839.1 431.31 840.11 429.71 841.16 428.06C842.2 426.41 843.13 424.7 843.22 424.27C843.56 422.56 841.57 419.94 836.97 416.06C832.78 412.53 829.57 409.37 829.57 408.79C829.57 408.08 830 407.57 831.75 406.24L835.61 403.28C838.45 401.12 840.6 398.94 842.37 396.44C846.4 390.75 846.73 389.79 845.22 387.93C842.91 385.06 842.18 383.23 841.89 379.44C841.65 376.36 843.11 372.27 845.01 370.71C847.67 368.52 851.7 366.97 855.45 367.94C861.93 369.61 862.46 370.5 867.57 370.63C873.16 370.77 874.25 370.57 876.26 369.09C878.46 367.47 879.15 366.01 879.28 362.74C879.3 362.31 879.32 361.89 879.33 361.46C879.52 357.1 879.71 352.59 878.32 343.32C878.17 342.28 877.14 340.39 876.6 338.94C872.33 327.66 868.81 320.52 863.82 313.01C859.39 306.34 855.61 302.35 849.19 297.57C839.83 290.6 837.92 288.74 836 284.77C834.7 282.07 834.7 282.07 834.7 278.32C834.7 274.57 834.7 274.57 836.64 269.83C840.22 261.11 840.01 257.88 835.08 246.57C832.25 240.06 823.8 226.29 820.7 223.14C820.15 222.58 819.66 222.15 819.12 221.87Q818.75 221.91 818.34 221.94Q815.53 222.12 813.91 222.83Q812.15 223.59 808.63 223.84C805.51 224.96 803.51 225.83 801.28 227.1Q799.75 230.66 795.06 232.51Q793.61 233.07 792.37 234.31Q790.79 235.88 788.27 236.52C787.61 237.09 786.9 237.7 786.13 238.37C784.8 239.52 783.24 241.15 781.55 243.13Q781.28 244.68 780.8 245.64Q776.42 254.36 772.7 256.86Q772.04 257.3 770.95 257.7C768.61 261.48 766.01 266.16 763.49 271.09Q763.44 271.46 763.39 271.73Q763.08 273.3 761.66 276.11Q760.75 277.95 759.96 279.85Q758.95 282.28 757.48 283.58C756.06 286.76 754.78 289.82 753.74 292.57Q753.33 298.77 751.04 302.77Q750.03 304.54 749.78 305.61Q748.67 310.59 746.88 314.18Q746.24 315.45 745.53 318.59Q744.73 322.13 741.88 331.86Q741.05 334.7 740.29 337.75Q739.25 341.9 738.5 343.28Q738.09 344.05 737.09 345.23C736.99 345.59 736.88 345.96 736.78 346.32C736.23 348.24 735.35 351.45 734.83 353.44C733.63 358.07 732.53 362 731.31 365.94C731.09 366.66 730.84 367.48 730.59 368.29Q730.51 369.67 730.4 370.49Q730.1 372.73 728.46 379.19Q726.29 387.74 725.49 390.06Q724.74 392.24 723.39 397.33Q720.37 408.68 719.41 410.9Q718.72 412.47 717.37 413.67C715.88 418.44 714.19 423.61 713.54 425.32C713.18 426.25 712.87 427.11 712.6 427.96Q712.24 431.36 711.34 434.2Q710.9 435.62 709.97 436.96C709.42 438.41 708.62 440.36 707.38 443.32C706.29 445.93 704.94 449.36 704.38 450.94C703.82 452.52 702.78 455.34 702.06 457.19C701.35 459.05 700.5 461.24 700.19 462.07C699.88 462.89 698.9 465.2 698.01 467.19C697.13 469.19 695.93 472 695.37 473.44C694.93 474.54 694.2 476.39 693.53 478.06Q693.31 481.63 692.93 482.69L691.6 486.5L691.05 488.09Q689.7 492.02 688.1 493.57C686.18 499.51 684.37 505.5 683.65 508.38Q683.57 509.69 683.45 510.84C683.79 511.65 684.83 511.61 686.98 510.8ZM292.28 340.62 293.18 340.91 310.24 340.94 311.79 340.5Q313.75 339.94 314.59 339.95Q316.03 339.96 323.06 337.72L326.77 336.54L330.34 334.74Q334.53 332.63 339.35 329.11Q342.19 327.03 347.28 321.62Q352.36 316.21 353.96 313.58L355.27 311.45L356 310.27Q357.2 308.34 361.81 299.14L366.43 289.89Q366.55 289.66 366.74 289.48L369.76 286.6Q369.93 286.43 370.15 286.33L374.55 284.21Q374.86 284.07 375.2 284.07H378.45Q378.79 284.07 379.1 284.21L383.5 286.33Q383.71 286.43 383.88 286.6L386.83 289.4Q387.01 289.57 387.12 289.8L388.15 291.78Q389.24 293.87 389.78 295.52Q391.73 301.45 395.56 307.1Q396.55 308.56 397.23 309.88Q398.16 311.68 401.66 316.47Q402.8 318.04 407.76 323Q412.73 327.96 414.29 329.11Q419.12 332.63 423.3 334.74L426.87 336.54L430.58 337.72Q437.61 339.96 439.06 339.95Q439.9 339.94 441.86 340.5L443.41 340.94H459.24L460.79 340.5Q462.74 339.94 463.67 339.94Q464.59 339.94 469.91 338.44Q471.7 337.93 473.75 337.02Q476.2 335.94 476.82 335.94Q477.32 335.94 482.31 332.86Q487.61 329.6 492.43 326.05Q493.93 324.96 502.59 316.38Q511.24 307.81 512.11 306.58Q513.77 304.23 516.51 300.73Q519.61 296.77 523.25 290.52Q525.6 286.48 526.88 284.47Q528.04 282.65 531.24 276.25L534.42 269.89L535.61 266.18Q536.8 262.42 537.34 260.22L537.83 258.14L537.81 248.4L537.49 247.69Q536.63 245.81 534.46 244.69Q532.65 243.75 527.38 242.34Q522.15 240.93 520.58 240.93L518.95 240.94Q518.74 240.94 518.53 240.88L515.24 239.94H474.41L471.11 240.88Q470.91 240.94 470.7 240.94H464.41L461.11 241.88Q460.91 241.94 460.7 241.94H457.41L455.86 242.38Q453.91 242.94 452.95 242.94Q452.41 242.94 450.86 243.38Q448.91 243.94 447.45 243.94Q446.41 243.94 444.86 244.38Q442.91 244.94 441.48 244.94Q440.45 244.94 438.6 245.42L436.6 245.93L434.56 246.44Q432.61 246.93 430.13 247.68Q427.58 248.45 425.9 248.82Q424.43 249.15 423.2 249.71Q421.76 250.38 418.68 251.41Q415.8 252.37 414.95 252.81Q413.91 253.34 410.84 254.36Q407.97 255.32 406.44 256.04Q404.53 256.94 403.88 256.94L403.7 257.07Q403.15 257.28 402.5 257.58Q401.05 258.24 394.16 260.56Q387.13 262.94 386.38 262.94Q386.18 262.95 384.81 263.38L383.23 263.87Q383.01 263.94 382.78 263.94H370.87Q370.64 263.94 370.42 263.87L368.83 263.38Q367.46 262.95 367.27 262.94Q366.53 262.94 360.98 261.06Q355.59 259.24 354.14 258.58Q352.75 257.94 352.74 257.94Q352.05 257.94 349.19 256.54Q346.74 255.34 345.39 254.9Q343.83 254.39 342.71 253.82Q341.92 253.41 335.18 251.15Q328.56 248.94 328.34 248.94Q327.68 248.94 324.36 247.92Q317.91 245.92 316.59 245.94Q315.75 245.95 313.8 245.41Q308.47 243.94 307.17 243.94Q305.74 243.94 303.79 243.38Q302.24 242.94 301.2 242.94Q299.74 242.94 297.78 242.38L296.24 241.94H291.95Q291.74 241.94 291.53 241.88L288.24 240.94H281.95Q281.74 240.94 281.53 240.88L278.24 239.94H237.41L234.11 240.88Q233.91 240.94 233.69 240.94L229.62 240.93L227.55 241.43Q217.28 243.92 215.49 247.56L214.94 248.68L214.78 257.09L215.3 259.18Q216.7 264.87 217.71 266.86Q218.27 267.95 218.8 269.57Q219.26 270.96 220.72 273.88Q222.28 276.99 222.8 278.59Q223.72 281.38 225.56 284.1Q226.54 285.55 227.15 286.74Q227.67 287.77 232.89 295.59L238.08 303.38L239.74 305.16Q241.55 307.11 242.57 308.59Q243.24 309.57 250.56 316.93Q253.61 320 255.75 322.07Q256.86 323.14 257.48 323.7Q257.79 323.98 257.95 324.12Q258 324.16 258.01 324.16Q257.69 323.94 257.25 323.94Q258.07 323.94 260.46 326.01Q264.04 329.1 267 330.6Q268.21 331.21 269.66 332.2Q270.97 333.09 274.41 334.81L277.86 336.54L282.71 338.15Q287.54 339.75 289.15 339.97Q291.03 340.22 292.28 340.62ZM260.25 187.47Q260.77 189.08 261.24 190.95L261.75 192.99L262.25 194.98L262.78 197Q262.82 197.19 262.82 197.38V204.51Q262.82 204.7 262.78 204.88L262.25 206.91L262.01 207.85L261.46 210.04Q260.49 213.97 255.68 218.58L253.92 220.26Q253.75 220.42 253.54 220.53L247.47 223.5C246.47 226.56 245.75 228.71 245.54 229.19C245.4 229.54 245.13 230.6 244.95 231.57C244.62 233.34 243.99 235.52 243.57 236.94H278.45Q278.66 236.94 278.86 237L282.16 237.94H288.45Q288.66 237.94 288.86 238L292.16 238.94H296.45Q296.66 238.94 296.86 239L298.61 239.5Q300.16 239.94 301.2 239.94Q302.66 239.94 304.61 240.5Q306.16 240.94 307.17 240.94Q308.87 240.94 314.6 242.52Q316.14 242.94 316.55 242.94Q318.35 242.92 325.25 245.05Q328.14 245.94 328.34 245.94Q329.05 245.94 336.13 248.31Q343.08 250.63 344.08 251.14Q344.99 251.61 346.33 252.05Q347.87 252.56 350.51 253.85Q351.53 254.35 352.35 254.7Q352.71 254.86 352.93 254.94L352.74 254.94Q353.41 254.94 355.39 255.85Q356.7 256.45 361.94 258.22Q367.03 259.94 367.29 259.94Q367.93 259.95 369.73 260.51L371.1 260.94H382.55L383.91 260.51Q385.71 259.95 386.36 259.95Q386.62 259.94 393.2 257.72Q399.94 255.45 401.26 254.85Q403.23 253.94 403.88 253.94L404.02 253.82Q404.54 253.62 405.16 253.33Q406.85 252.53 409.89 251.52Q412.74 250.56 413.58 250.14Q414.64 249.6 417.73 248.56Q420.65 247.59 421.94 246.99Q423.47 246.29 425.25 245.89Q426.82 245.55 429.26 244.81Q431.81 244.04 433.83 243.53L435.87 243.02L437.86 242.51Q440.07 241.94 441.48 241.94Q442.49 241.94 444.04 241.5Q445.99 240.94 447.45 240.94Q448.49 240.94 450.04 240.5Q451.99 239.94 452.95 239.94Q453.49 239.94 455.04 239.5L456.78 239Q456.99 238.94 457.2 238.94H460.49L463.78 238Q463.99 237.94 464.2 237.94H470.49L473.78 237Q473.99 236.94 474.2 236.94H498.15C497.88 235.5 497.57 234.39 497.24 233.69C496.54 232.23 496.73 230.37 496.84 229.3C496.86 229.05 496.88 228.84 496.89 228.69C496.91 227.69 496.75 227.01 496.33 226.19C495.89 225.35 495.69 224.42 495.54 222.48C495.42 221.06 495.21 219.46 495.07 218.92C494.92 218.38 494.7 216.56 494.57 214.88C494.29 211.27 493.73 207.57 493.23 205.96C493.03 205.33 492.79 204.37 492.7 203.82C492.46 202.39 490.8 197.57 489.3 193.93L487.14 188.69C485.65 185.07 484.74 184.59 481.89 185.94C476.45 188.52 471.17 189.39 466.66 188.45C461.19 187.3 458.5 185.41 456.33 181.18C454.71 178.04 454.58 177.07 455.33 173.8C455.96 171.05 456.58 169.94 458.43 168.23C460.41 166.41 460.65 166.64 460.96 170.69C461.3 175.22 462.09 176.61 464.43 176.88C467.63 177.24 470.22 174.54 471.17 169.88C471.56 167.97 471.55 167.87 470.81 164.32C469.72 159.09 467.34 154.7 463.3 150.49C459.93 146.97 455.3 145.78 452.11 147.61C450.14 148.75 449.69 150.63 450.54 154.14C451.81 159.4 451.95 160.17 451.93 162.19C451.9 164.83 451.01 168.09 449.43 171.38C448.5 173.3 447.91 174.11 445.89 176.21C443 179.22 443.37 179.01 436.95 181.36C434.86 182.12 429.16 182.47 426.84 181.97C421.05 180.73 415.68 174.61 415.73 169.32C415.75 167.46 416.77 165.11 418.31 163.37C420.2 161.25 421.07 161.31 421.08 163.55C421.1 167.83 427.12 170.63 430.13 167.76C432.01 165.97 432.05 162.41 430.24 158.65C428.87 155.79 428.43 155.38 423.59 152.54C418.58 149.6 416.58 147.33 414.84 142.6C414.09 140.56 413.56 140.15 411.83 140.25C410.79 140.31 410.62 140.43 409.24 142.07C405.63 146.34 405.51 148.42 408.53 154.69C410.96 159.74 410.87 163.05 408.18 167.35C407.02 169.21 405.91 170.11 402.7 171.77C400.73 172.78 397.44 176.09 397.08 177.41C396.29 180.36 398.39 183.73 401.46 184.45C403.72 184.97 404.11 185.19 404.02 185.91C403.75 188.22 396.83 189.65 392.14 188.36C387.57 187.11 385.56 185.43 383.44 181.08C380.58 175.21 380.87 170.93 384.68 162.69C386.65 158.43 386.86 157.27 386.21 154.28C385.34 150.32 384.55 148.49 382.47 145.57C379.53 141.46 378.44 140.44 377 140.44C375.81 140.44 375.49 141.19 375.72 143.37C376.01 145.99 375.91 147.17 375.17 149.79C373.3 156.43 367.79 162.74 362.71 164.06C359.95 164.77 356.32 164.44 356.32 163.47C356.32 163.24 357.01 162.38 357.84 161.56C360.29 159.15 361.27 156.39 361.03 152.58C360.91 150.7 359.16 147.39 357.95 146.74C356.73 146.08 354.23 146.2 352.54 146.98C350.2 148.07 346.56 151.56 345.48 153.75C342.99 158.75 342.05 163.27 342.81 166.53C343.31 168.71 346.53 172.67 349.82 175.17C352.57 177.26 353.48 177.53 356.4 177.17C359.62 176.76 360.16 177.36 358.2 179.16C354.02 183.01 350.03 184.19 344.05 183.33C337.49 182.39 332.51 178.06 330.54 171.57C330.12 170.19 329.57 168.49 329.32 167.8C328.62 165.87 328.23 161.76 328.41 158.26C328.57 155.12 328.59 155.04 330.63 149.84C330.79 149.43 331.55 148.25 332.31 147.21C334.34 144.46 335.86 141.93 335.77 141.47C335.67 140.95 334.46 141.04 331.45 141.8C327.69 142.75 326.1 143.62 324.49 145.57C322.09 148.48 321.32 151.11 321.32 156.46C321.32 159.17 321.25 159.72 320.86 160.2C320 161.27 317.9 160.01 316.77 157.74C316.45 157.1 315.83 155.95 315.4 155.19C314.18 153.07 313.71 149.91 314.19 147.17C314.64 144.61 314.67 143.14 314.27 142.74C312.26 140.73 299.89 148.24 297.73 152.79C295.96 156.51 295.27 160.84 295.93 163.98C296.57 167.02 297.5 168.42 299.92 170.04C301.75 171.27 304.25 170.73 305.24 168.89C305.69 168.07 305.84 165.04 305.59 162.22C305.28 158.88 311.48 160.42 313.35 164.16C314.62 166.7 314.75 168.1 313.97 170.99C312.25 177.39 310.28 179.5 304.29 181.34C301.3 182.27 295.95 182.26 293.29 181.34C286.34 178.92 281.69 172.55 280.7 164.07C280.08 158.78 276.4 163.18 275.92 169.78C275.73 172.48 276.12 174.64 277.17 176.66C277.64 177.57 278.46 179.15 278.99 180.17C279.79 181.73 280.21 182.21 281.55 183.17C284.18 185.06 286.07 186.69 286.07 187.07C286.07 188.36 281.56 188.56 277.57 187.45C273.54 186.33 271.74 185.35 267.7 182.07C264.13 179.17 263.6 179.43 261.34 185.05C260.97 185.98 260.6 186.8 260.25 187.47ZM311.86 332.38 310.11 332.88Q309.91 332.94 309.69 332.94L298.69 332.9Q298.48 332.9 298.27 332.84L296.65 332.36Q295.23 331.94 294.66 331.94Q293.64 331.94 289.68 330.64L285.94 329.41Q285.84 329.38 285.74 329.33L282.13 327.52Q278.45 325.68 276.98 324.69Q275.68 323.8 274.44 323.18Q272.95 322.42 271.01 320.74Q269.29 319.24 268.11 318.45Q266.77 317.54 262.49 313.26Q258.21 308.98 257.32 307.65Q256.51 306.45 255.46 305.15Q254.27 303.67 253.56 302.27Q252.96 301.1 251.07 298.26Q249.07 295.28 247.23 291.61L245.43 288.03Q245.38 287.93 245.35 287.82L244.12 284.09Q242.82 280.12 242.82 279.12Q242.82 278.56 242.36 276.91L241.84 275.06Q241.78 274.85 241.79 274.63L241.95 267.28Q241.96 267.03 242.05 266.8L243.5 262.86Q243.61 262.56 243.84 262.32L245.89 260.26Q251.16 254.94 256.24 254.94Q256.38 254.94 258.12 254.47L259.85 254L261.8 253.47L263.55 252.99Q263.75 252.94 263.95 252.94L269.24 252.94L272.53 252Q272.74 251.94 272.95 251.94H293.7Q293.91 251.94 294.11 252L297.4 252.94L303.44 252.93Q303.62 252.93 303.79 252.97L305.91 253.46Q307.96 253.94 309.22 254.18Q313.12 254.91 315.17 255.39L316.5 255.71L318.16 256.09Q326.47 258 331.37 260.25Q332.87 260.94 332.88 260.94Q334.8 260.94 341.94 265.72L345.78 268.28Q345.91 268.37 346.02 268.48L349.86 272.4Q350.02 272.56 350.12 272.77L351.66 275.78Q353.25 278.9 354.02 281.29L354.75 283.57Q354.82 283.79 354.82 284.02V291.9Q354.82 292.13 354.75 292.35L354.26 293.93Q353.83 295.3 353.83 295.48Q353.81 297.19 351.86 301.52Q349.99 305.67 348.01 308.64L346.5 310.9Q346.42 311.02 346.31 311.13L341.16 316.28Q335.9 321.53 334.53 322.45Q333.33 323.25 332.02 324.31Q330.54 325.51 326.65 327.46L322.91 329.33Q322.81 329.38 322.7 329.42L318.97 330.64Q315.01 331.94 313.98 331.94Q313.41 331.94 311.86 332.38ZM456.86 332.38 455.11 332.88Q454.91 332.94 454.7 332.94L442.69 332.91Q442.49 332.91 442.29 332.85L440.66 332.39Q439.06 331.94 436.95 331.4L436.17 331.21L433.82 330.6Q429.57 329.48 421.83 324.42Q414.1 319.37 411 315.7Q403.21 306.48 400.12 297.09L398.9 293.35Q398.82 293.13 398.82 292.89V282.95Q398.82 282.7 398.9 282.47L400.62 277.41Q400.68 277.23 400.79 277.07L402.35 274.7Q403.99 272.2 405.43 270.75Q407.69 268.45 413.75 264.83Q419.77 261.24 423.55 259.9Q425.16 259.33 426.61 258.72Q428.38 257.96 429.16 257.95Q429.43 257.95 432.36 257.04Q436.86 255.66 439.3 255.2Q440.65 254.95 442.73 254.46Q445.03 253.93 445.84 253.94Q446.25 253.94 447.78 253.5L449.53 253Q449.74 252.94 449.95 252.94H456.24L459.53 252Q459.74 251.94 459.95 251.94H482.7Q482.91 251.94 483.11 252L486.41 252.94L487.95 252.94Q489.9 252.94 491.83 253.47L493.99 254.04L495.69 254.48Q499.38 255.4 502.63 256.75L504.99 257.72Q505.26 257.83 505.47 258.04L507.04 259.59Q509.64 262.15 510.97 266.17L511.75 268.5Q511.82 268.73 511.82 268.97L511.82 273.82Q511.82 274.02 511.77 274.21L511.3 275.95L510.72 278.12L510.29 279.81L510.09 280.6L509.48 282.95Q509.18 284.1 507.72 286.99Q506.38 289.66 505.69 291.58Q504.91 293.75 503.72 295.54Q502.67 297.11 502.15 298.14Q501.54 299.34 500.56 300.78Q499.68 302.09 499.09 303.26Q498.38 304.67 497.18 306.15Q496.14 307.44 495.32 308.65Q494.42 309.99 491.15 313.26Q487.87 316.54 486.53 317.44Q485.36 318.23 483.81 319.58Q480.37 322.58 476.07 324.74Q474.1 325.74 472.28 326.92Q470.23 328.26 468.37 328.86Q466.81 329.37 465.92 329.82Q461.76 331.94 458.97 331.94Q458.41 331.94 456.86 332.38ZM230.15 220.28 232.17 220.92 246.13 220.82 252.01 217.94 253.6 216.41Q257.79 212.41 258.55 209.31L259.11 207.11L259.35 206.16L259.82 204.32V197.57L259.35 195.72L258.84 193.72L258.32 191.68Q256.61 184.79 254.31 181.99Q250.36 177.16 243.67 173.79Q233.2 168.53 230.6 163.33Q230.02 162.18 229.53 161.66L229.33 161.45L229.22 161.45L229.03 161.42Q228.82 161.78 228.82 163.16V164.39L229.39 166.28Q229.98 168.28 230.89 170.17L231.76 171.99L233.39 173.87Q235.35 176.13 235.73 177.3L236.02 178.18Q236.2 178.71 235.98 179.23L235.25 180.99Q235.03 181.49 234.55 181.74L233.79 182.13Q229.26 184.48 224.79 177.85L223.54 175.99Q223.43 175.83 223.36 175.64L222.64 173.54Q221.82 171.2 221.82 170.13Q221.82 169.53 221.38 167.98L220.88 166.23Q220.82 166.03 220.82 165.82L220.83 161.54L219.64 157.6L217.13 155.03Q214.74 152.56 213.64 151.92Q212.51 151.25 208.36 149.87Q203.64 148.3 201.54 147.21L199.54 146.17Q199.34 146.07 199.17 145.9L194.86 141.59Q194.7 141.42 194.59 141.22L193.51 139.11Q192.54 137.22 191.94 136.6L191.79 145.11L191.99 145.8Q192.71 148.2 196.52 151.89L198.58 153.89L199.75 154.48Q206.19 157.73 208.42 161.6Q211.01 166.08 207.48 169.6Q205 172.08 201.78 171.13Q198.94 170.3 196.24 166.81Q195.29 165.57 194.59 164.75L194.33 164.45L194.24 164.45L194.07 164.39Q193.82 164.99 193.82 167.66V170.39L194.39 172.28Q194.98 174.27 195.91 176.23L196.8 178.08L197.84 179.21Q198.92 180.37 201.27 181.92L203.6 183.45L207.41 184.69Q211.35 185.97 213.44 186.5Q215.71 187.08 219.17 188.73L222.49 190.32Q222.7 190.42 222.87 190.59L224.36 192Q227.03 194.55 227.45 197.11Q227.97 200.25 225.22 201.67L224.43 202.08Q223.89 202.36 223.31 202.18L222.36 201.9Q219.56 201.06 216.39 196.99Q215.28 195.57 214.57 194.73Q212.92 192.79 209.62 191.29L208.87 190.95L206.92 190.95Q205.03 190.94 204.14 191.23L203.91 191.16Q203.8 191.76 206.84 194.28Q210.55 197.35 211.8 200.67Q212.38 202.2 214.66 206.77L216.87 211.19L219.36 213.73Q223.8 218.26 230.15 220.28ZM343.67 242.72C342.14 242.32 340.67 241.88 340.42 241.75C340.16 241.61 337.5 240.59 334.51 239.47C331.53 238.35 327.98 236.91 326.64 236.28C322.54 234.36 319.31 232.95 316.95 232.08C315.71 231.62 312.39 230.37 309.57 229.31C298.16 225.03 295.6 224.36 290.57 224.33C286.25 224.31 286.13 224.34 280.2 226.71C276.2 228.3 273.13 229.75 270.7 231.19C269.6 231.84 267.9 232.84 266.93 233.41C265.1 234.48 263.82 234.75 263.82 234.05C263.82 232.15 270.8 223.99 275.52 220.37C283.79 214.03 290.85 211.49 298.29 212.19C302.33 212.56 306.06 213.22 309.45 214.14C310 214.29 311.4 214.65 312.57 214.94C313.74 215.24 315.51 215.69 316.5 215.96C317.5 216.22 318.49 216.44 318.72 216.44C318.94 216.44 320.44 216.88 322.04 217.43C323.64 217.97 326.28 218.76 327.9 219.19C333.16 220.58 346 225.01 348.57 226.32C350.26 227.18 351.76 228.59 352.52 230.03C353.17 231.26 353.2 231.48 353.2 234.94C353.2 238.47 353.17 238.61 352.43 240.19C350.9 243.43 348.76 244.05 343.67 242.72ZM400.69 243.09C400.28 242.91 399.57 242.35 399.13 241.84C397.76 240.28 397.48 239.37 397.46 236.32C397.43 231.02 399.28 228.41 404.95 225.7C410.98 222.83 435.78 215.06 443.45 213.65C444.13 213.52 445.81 213.18 447.18 212.89C449.4 212.42 450.19 212.38 454.68 212.51C459.7 212.65 459.7 212.65 462.45 213.64C467.14 215.31 469.18 216.53 473.7 220.34C480.68 226.23 487.29 234.33 486 235.4C485.3 235.98 482.81 234.75 478.2 231.56C475.85 229.94 470.8 227.29 468.15 226.29C464.52 224.92 461.85 224.44 457.86 224.44C454.2 224.44 454.03 224.47 450.78 225.45C445.36 227.09 440.27 229.13 428.46 234.43C422.28 237.2 410.32 241.97 408.45 242.4C407.9 242.53 406.78 242.82 405.96 243.04C404.17 243.52 401.73 243.55 400.69 243.09ZM639.12 474.19C636.29 473.59 633.97 472 631.89 469.24C629.12 465.56 628.33 462.61 628.33 455.94C628.33 450.14 628.62 447.97 629.83 444.88C631.72 440.06 632.33 439.26 635.18 437.91C637.49 436.82 638.85 437 640.37 438.61C642.31 440.66 642.2 442.86 639.72 451.36C637.79 457.97 637.82 459.54 639.93 461.39C641.46 462.73 643 462.73 645.67 461.39C648.1 460.17 650.45 457.21 652.93 452.26C654.31 449.49 653.3 446.5 650.7 445.69C645.27 444.01 645.38 439.41 650.93 436.08C652.34 435.24 652.53 435.19 654.66 435.19C657.54 435.19 659.86 435.6 660.88 436.28C662.73 437.53 664.1 440.2 664.62 443.57C665.43 448.78 661.7 459.18 656.69 465.7C654.77 468.2 651.02 471.84 649.66 472.53C646.82 473.96 641.78 474.76 639.12 474.19ZM652.07 228.79C647.03 227.45 642.64 222.96 641.32 217.81C640.73 215.53 640.19 208.59 640.42 206.33C640.82 202.43 643.3 195.26 644.8 193.69C646.9 191.48 651.28 192.39 652.6 195.31C653.53 197.34 653.27 200.16 651.77 204.53C650.22 209.03 650.09 210.65 651.04 213.68C651.88 216.39 652.75 217.19 654.86 217.19C658.29 217.18 661.12 214.71 663.38 209.73C664.56 207.13 665.4 201.77 664.8 200.65C664.47 200.03 662.71 199.21 661.7 199.19C660.63 199.18 658.93 198.34 658.44 197.6C656.79 195.07 658.95 191.53 663.5 189.27C665.16 188.44 665.44 188.38 666.94 188.5C674.23 189.09 676.98 194.26 675.33 204.32C674.81 207.53 674.46 208.67 672.83 212.55C670.09 219.06 667.6 222.61 663.7 225.55C659.57 228.67 655.68 229.75 652.07 228.79ZM691.65 225.18C689.03 224.34 686.94 222.33 685.38 219.19C684.38 217.18 684.23 212.52 685.12 211.21C686.43 209.28 686.88 209.18 692.59 209.46C695.25 209.59 696.1 209.08 699.66 205.28C702.63 202.11 703.29 201.06 703.94 198.58C704.89 194.88 703.95 192.88 700.51 191.31C697.3 189.85 695.37 190.19 692.73 192.68C690.04 195.22 688.99 195.54 687.57 194.25C684.89 191.81 687.27 184.33 691.87 180.79C694.01 179.14 694.72 178.86 697.13 178.74C700.61 178.57 703.59 179.96 707.2 183.45C708.48 184.69 709.53 185.43 711.13 186.2C713.97 187.58 715.14 188.6 716.04 190.52C717.01 192.57 717.32 194.21 717.32 197.15C717.32 201.7 716.39 203.42 711.07 208.69C708.3 211.44 707.83 212.03 707.18 213.57C705.07 218.6 703.8 220.76 701.85 222.7C699.34 225.18 695.57 225.62 695.57 225.62C695.57 225.62 692.84 225.57 691.65 225.18ZM699.57 356.2C693.94 355.84 686.97 352.13 680.89 346.26C678.4 343.85 677.56 342.45 677.04 339.87C676.52 337.29 677.11 335.46 679.31 332.81C681.66 330 684.61 328.66 687.62 329.04C691.31 329.51 692.61 332.33 690.86 336.07C688.97 340.09 689.77 342.65 693.52 344.64C695.92 345.91 698.08 346.44 700.79 346.44C703.66 346.44 704.83 346.15 705.9 345.2C706.66 344.51 706.7 344.39 706.79 342.34C706.91 339.3 706.47 338.49 703.36 336.03C702.03 334.98 700.22 333.64 699.32 333.07C695.74 330.75 694.19 328.3 694.38 325.26C694.56 322.46 695.87 321.2 698.81 320.99C701.45 320.81 705.42 323.33 710.73 328.57C715.45 333.22 716.94 336.1 717.3 341.27C717.84 349.01 716.5 351.85 711.01 354.6C707.36 356.43 706.08 356.61 699.57 356.2ZM653.37 178.06C645.54 175.39 641.72 171.47 640.31 164.65C639.71 161.76 639.71 161.37 640.31 158.49C641.52 152.61 645.54 146.72 649.78 144.63C651.85 143.6 651.98 143.57 654.31 143.58C658.93 143.62 662.13 145.22 666.62 149.74C670.72 153.88 673.84 158.68 674.58 161.98C675.1 164.35 674.8 168.34 673.97 170.05C672.81 172.42 670.68 173.03 668.13 171.72C666.54 170.9 665.85 169.91 664.43 166.41C660.62 157.06 655.5 152.56 652.42 155.83C651.05 157.29 649.62 162.32 650.1 164.04C650.4 165.14 654.44 168.42 656.82 169.5C659.97 170.93 661.07 172.29 661.07 174.74C661.07 178.2 657.85 179.58 653.37 178.06ZM632.04 376.71C631.54 376.43 630.34 375.49 629.38 374.6C627.13 372.54 624.6 370.83 621.36 369.21C617.37 367.21 614.35 363.7 613.19 359.71C611.2 352.89 611.95 348.56 615.49 346.34C616.24 345.88 618.65 343.77 620.85 341.66C625.4 337.3 625.98 336.89 628.38 336.3C636.46 334.32 642.66 341.17 641.6 350.92C641.28 353.9 640.93 354.85 639.84 355.77C638.8 356.64 638.1 356.62 636.27 355.64C634.5 354.7 633.4 353.5 631.95 350.94C630.39 348.18 629.23 347.36 627.05 347.49C623.04 347.71 621.37 351.03 622.85 355.85C623.99 359.6 626.12 362.05 629 362.94C630.97 363.55 632.03 363.57 634.66 363.03C639.06 362.14 641.57 363.77 641.57 367.5C641.57 370.06 640.29 373.15 638.35 375.28C636.81 376.96 633.77 377.65 632.04 376.71ZM643.82 423.46C640.66 422.57 637.61 420.9 635.74 419.03C631.61 414.88 630.59 406.02 633.55 400.07C635.61 395.92 639.5 391.38 642.45 389.68C646.35 387.42 652.28 389.38 657.36 394.61C663.63 401.07 666.07 406.08 666.07 412.47C666.07 416.39 665.65 417.37 663.49 418.48C661.4 419.55 659.06 419.32 657.41 417.88C656.33 416.92 655.9 415.91 655.46 413.21C655.04 410.65 654.46 408.94 653.08 406.11C651.79 403.47 650.68 402.16 649.02 401.34C646.05 399.86 644.18 400.75 642.28 404.59C639.95 409.3 640.68 411.03 646.63 414.96C650.5 417.51 651.52 418.84 651.56 421.34C651.59 423.71 648.13 424.66 643.82 423.46ZM618.64 252.07C617.91 251.87 616.34 251.2 615.14 250.58C613.15 249.56 612.61 249.41 609.32 248.94C604.88 248.29 604.25 248.1 603.08 247.04C601 245.16 600.27 242.16 600.94 238.19C601.51 234.74 601.82 233.98 603.43 232.01C604.19 231.08 605.69 229.19 606.78 227.81C609.99 223.71 611.81 222.58 615.24 222.57C617.17 222.57 617.33 222.61 618.06 223.3C619.61 224.79 619.01 226.83 615.46 232.04C611.05 238.52 610.92 240.36 614.81 241.19C619.07 242.09 624.02 240.46 625.46 237.66C626.2 236.24 626.43 232.96 625.98 230.51C625.05 225.56 625.02 225.01 625.54 223.84C626.48 221.72 629.24 221.12 631.92 222.46C636.1 224.54 637.6 230.72 635.72 238.05C634.92 241.14 634.03 243.06 632.02 246.01C628.85 250.67 626.43 252.25 622.34 252.37C620.8 252.41 619.48 252.3 618.64 252.07ZM723.2 178.54C720.13 177.77 717.49 175.65 715.93 172.69C715.23 171.38 715.3 166.91 716.04 165.4C716.71 164.03 719.65 160.5 721.14 159.26C723.12 157.62 725.2 155.03 726.47 152.64C728.05 149.65 730.22 146.74 731.46 145.92C733.89 144.32 735.73 144.33 740.45 145.99C742.24 146.61 744.82 147.49 746.2 147.93C749.43 148.98 753.72 151.17 755.31 152.6C756.83 153.97 757.07 154.71 757.07 158.1C757.07 162.56 755.81 165.35 753.31 166.43C750.58 167.6 748.1 166.64 746.44 163.78C742.91 157.67 735.35 155.34 731.89 159.28C730.43 160.94 730.33 161.81 730.58 170.44C730.68 174.23 730.46 175.13 729 176.65C727.56 178.15 724.99 178.99 723.2 178.54ZM724.7 255.56C721.52 254.86 716.12 253.16 714.41 252.32C709.94 250.12 707.7 246.35 707.73 241.07C707.78 233.88 713.88 226.93 717.95 229.45C719.39 230.33 719.57 231.1 719.57 236.11C719.57 241.29 719.76 241.91 721.58 242.87C722.85 243.55 725.5 243.65 726.85 243.09C729.27 242.08 731.05 239.62 732.69 235.03C734.16 230.91 735.68 229.21 738.38 228.64C740.24 228.25 741.52 228.75 743.52 230.64C745.5 232.51 746.06 234.14 745.61 236.76C745.16 239.38 744.47 240.59 742.21 242.69C738.21 246.41 735.91 248.85 734.78 250.57C731.32 255.86 729.71 256.66 724.7 255.56ZM783.02 215.19C781.02 213.86 779.99 211.94 779.59 208.74C779.01 204.06 777.33 202.44 773.07 202.44C770.67 202.44 769.52 202.76 768.73 203.64C767.99 204.48 766.33 209.16 766.07 211.14C765.8 213.23 765.61 213.65 764.58 214.52C763.03 215.83 759.05 216.02 756.99 214.88C753.3 212.84 752.96 205.26 756.27 198.82C757.73 195.98 759.45 194.18 761.15 193.7C762.6 193.3 766.53 193.48 768.57 194.05C770.52 194.6 773.61 194.54 776.24 193.92C781.69 192.62 785.36 193.84 787.26 197.56C789.99 202.91 790.33 210.13 788.03 213.75C786.6 215.99 784.95 216.47 783.02 215.19ZM232.5 470.09Q236.83 470.24 242.26 466.76Q246.19 464.23 249.22 460.95Q253.75 456.03 257.06 450.37Q260.38 444.69 260 442.62Q259.91 442.2 259.54 442.01L259.51 441.91Q259.41 442.01 257.95 445.02Q257.02 446.93 256.66 447.6Q253.05 454.39 247.35 459.84Q241.75 465.2 237.08 466.52Q233.19 467.61 231.63 467.62Q230.01 467.63 226.83 466.53Q223.03 465.23 217.32 460.15Q213.32 456.59 211.75 454.63Q207.21 448.94 204.01 439.07Q201.86 432.45 201.2 427.56Q199.59 415.45 200.54 396.26Q200.86 389.84 203.28 380.51Q205.4 372.34 207.12 368.87Q210.64 361.79 213.99 357.89Q217.34 353.99 223.63 349.64Q226.22 347.85 226.86 347.33Q226.24 347.14 225.11 347.14Q222.63 347.13 219.44 349.8Q219.32 349.9 218.92 350.19Q211.6 355.55 206.8 364.04Q206.62 364.36 206.06 365.25Q197.25 379.46 196.79 394.99Q196.72 397.23 196.56 401.01L196.56 401.01Q196.01 413.65 197.69 426.39Q198.27 430.81 200.81 438.34Q204.41 449.01 209.36 456.14Q212.98 461.36 218.31 465.06Q225.15 469.82 232.5 470.09ZM669.2 388.43C663.82 387.62 660.11 384.87 657.57 379.82C655.9 376.48 655.19 370.71 656.24 368.89C657.98 365.85 663.32 366.73 665.69 370.44C665.99 370.92 666.61 372.24 667.06 373.37C668.36 376.63 669.8 377.63 672.26 376.98C675.14 376.21 675.8 374.81 675.35 370.36C674.77 364.58 676.1 362.19 679.9 362.19C682.33 362.19 683.48 363.12 684.99 366.32C685.84 368.12 685.94 368.51 685.93 370.32C685.91 375.45 682.65 382.82 679 385.97C677.95 386.88 676.66 387.83 676.14 388.08C675.04 388.61 671.56 388.79 669.2 388.43ZM503.04 469.83Q510.63 469.64 519.75 462L519.86 461.91Q528.33 454.83 531.75 443.63Q536.04 429.61 537.34 420.55Q538.55 412.07 538.55 397.34Q538.56 382.76 531.51 369L531.32 368.62Q528.07 362.26 522.78 356.46Q522.24 355.86 522.1 355.68Q520.12 353.12 515.38 349.89Q510.67 346.69 508.93 346.69Q508.25 346.69 507.74 347Q507.84 347.07 507.96 347.14Q508.67 347.6 510.55 348.76Q513.64 350.66 514.07 350.99Q521.02 356.2 525.91 364.71Q526.47 365.68 526.71 366.09Q533.36 376.98 534.57 396.05Q535.27 407.22 533.87 420.81Q532.91 430.18 531.89 434.42Q527.41 453.01 518.35 461.1Q514.16 464.85 508.84 466.66Q504.58 468.11 502.46 467.68Q495.11 466.19 490.08 462.92Q484.21 459.09 478.38 447.69Q477.58 446.13 477.19 445.6Q477.04 445.78 476.85 446.07Q476.57 446.47 476.65 447.43Q476.81 449.21 478.9 452.89Q481.81 458.02 485.81 461.68Q494.95 470.03 503.04 469.83ZM621.57 204.3C618.38 203.72 611.51 201.09 608.97 199.49C606.4 197.86 606.01 197.25 605.54 194.08C605.12 191.26 605.49 189.85 607.1 188.08C607.84 187.28 608.71 186.6 609.24 186.43C611.24 185.77 614.42 186.71 617.89 188.99C621.23 191.18 621.89 190.8 624.69 185.07C626.27 181.83 626.73 181.12 628.03 179.88C630.31 177.7 631.37 178.01 632.96 181.32C634.93 185.42 635.12 191.75 633.43 197.32C631.57 203.46 628.12 205.49 621.57 204.3ZM706.8 398.44C705.56 398.22 704.39 397.49 703.47 396.36C702.73 395.44 702.7 395.29 702.7 393.11C702.7 390.92 702.75 390.69 703.86 388.19C705.35 384.84 705.52 383.99 704.87 383.18C704.39 382.6 704.33 382.59 703.16 382.9C698.51 384.15 696.92 383.42 696.21 379.68C695.43 375.59 697.61 370.11 700.77 368.26C701.92 367.58 702.04 367.57 705.7 367.58C709.3 367.59 709.53 367.63 711.7 368.42C716.43 370.16 716.98 370.69 717.55 373.99C718.24 378.03 716.06 389.78 713.81 394.22C712.4 396.99 709.28 398.86 706.8 398.44ZM678.81 259.85C677.2 259.42 676.02 258.62 674.58 257C668.4 250.07 667.87 235.17 673.69 232.2C675.49 231.28 681.26 231.26 683.95 232.16C693.11 235.23 698.18 241.71 697.77 249.82C697.52 254.81 694.05 257.68 690.39 255.92C687.88 254.7 687.34 252.45 688.66 248.69C689.54 246.18 689.53 244.86 688.6 243.39C687.01 240.89 682.92 239.34 679.23 239.83C674.96 240.41 675.51 245.41 680.45 250.94C682.81 253.59 683.12 254.16 683.26 256.19C683.51 259.57 682.09 260.73 678.81 259.85ZM624.63 326.4C622.4 326.09 620.67 325.37 619.01 324.06C616.52 322.11 615.51 320.21 613.8 314.27C613.37 312.78 612.75 311.04 612.42 310.39C610.64 306.87 610.2 302.34 611.42 299.86C613.01 296.61 617.58 294.83 619.63 296.67C620.43 297.38 620.45 297.45 620.43 299.36C620.42 300.44 620.27 302.84 620.1 304.69C619.42 312.08 619.43 313 620.14 313.83C620.76 314.54 620.85 314.57 622.99 314.57C625.13 314.57 625.28 314.53 627.97 313.25C632.85 310.94 635.65 311.07 637.17 313.68C638.59 316.11 637.7 320.39 635.19 323.17C633.08 325.5 628.43 326.93 624.63 326.4ZM667.05 325.21C664.46 324.73 661.82 322.65 660.74 320.25C658.83 315.98 658.92 312.05 660.98 309.99C661.8 309.17 661.89 309.14 663.39 309.23C665.79 309.39 667.29 310.23 668.09 311.89C669.31 314.38 670.38 314.81 672.94 313.83C675.45 312.88 676.07 311.15 675.05 307.94C674.23 305.33 674.76 303.3 676.78 301.35C679.25 298.96 682.37 299.43 684.39 302.5C685.92 304.84 686.2 305.93 686.2 309.58C686.2 312.84 686.2 312.84 685.27 314.7C683.95 317.38 681.68 319.74 678.36 321.91C673.67 324.97 670.61 325.86 667.05 325.21ZM957.83 399.45C957.35 394.02 952.33 383.49 945.78 377.53C937.29 369.8 927.96 367.17 924.32 365.94C918.48 363.96 916.81 371.61 921.4 372.35C922.34 372.5 933.41 375.94 940.76 382.74C947.29 388.77 951.11 399.16 951.32 401.93C951.53 404.71 958.49 404.86 957.83 399.45ZM772.82 275.71C772.82 274.2 780.66 266.99 785.32 264.21C789.25 261.88 794.11 260.64 797.26 261.17C798.31 261.35 800.41 261.58 801.93 261.7C803.45 261.81 805.49 262.08 806.45 262.29C807.41 262.51 808.69 262.68 809.29 262.69C809.89 262.69 811.36 262.9 812.54 263.16C813.73 263.42 816.05 263.88 817.7 264.19C825.41 265.63 827.23 266.76 827.51 270.29C827.74 273.19 826.43 274.69 823.66 274.69C821.9 274.69 812.36 272.37 805.7 270.32C804.18 269.85 802.5 269.4 801.95 269.31C801.4 269.21 800.19 268.92 799.26 268.64C797.78 268.2 797.03 268.16 793.14 268.25C786.53 268.4 784.84 268.97 778.52 273.15C773.7 276.34 772.82 276.74 772.82 275.71ZM695.7 297.77C694.1 297.41 691.98 296.57 691.12 295.95C689.63 294.87 685.61 289.81 684.66 287.82C682.08 282.41 682.37 273.46 685.19 271.24C687.46 269.45 691.95 270.3 693.15 272.74C693.58 273.63 693.58 273.72 692.96 276.79C691.98 281.62 692.11 283.53 693.53 285.03C695.34 286.94 697.1 286.91 702.23 284.85C705.81 283.42 707.42 283.63 708.45 285.67C709.24 287.24 708.47 289.95 706.66 291.95C705.16 293.63 701.33 296.7 699.95 297.35C698.76 297.91 697.06 298.08 695.7 297.77ZM638.38 305.91C637.2 305.33 635.82 303.86 634.99 302.32C634.52 301.43 634.46 300.91 634.45 297.82C634.45 295.1 634.34 294.02 633.99 293.02C633.07 290.35 630.72 289.32 627.29 290.08C623.73 290.87 623 290.86 622.26 289.97C621.32 288.85 620.95 286.83 621.31 284.76C621.67 282.72 622.02 282.02 623.27 280.89C625.04 279.29 626.69 278.82 630.57 278.82C632.54 278.82 633.36 278.82 634.11 279.04C634.66 279.19 635.17 279.46 636.06 279.93C642.73 283.46 645.57 290.7 644.35 301.06C643.78 305.86 641.7 307.56 638.38 305.91ZM649.7 276.55C643.94 274.81 639.37 270.97 638.08 266.77C637.12 263.66 637.61 261.57 639.5 260.78C641.54 259.93 643.99 261.27 646.21 264.44C647.88 266.83 648.48 267.33 650.25 267.84C653.47 268.78 655.58 267.99 656.46 265.52C657.01 263.99 656.93 258.94 656.32 256.63C655.61 253.91 656.2 252.76 658.42 252.51C662.38 252.06 665.83 258.91 664.83 265.21C664.67 266.23 664.39 268.09 664.21 269.35C663.69 272.94 661.75 275.53 658.74 276.65C656.64 277.44 652.47 277.39 649.7 276.55ZM733.82 195.2C730.4 194.75 728.19 192.17 727.46 187.76C727.09 185.56 728.62 182.78 730.83 181.62C732.29 180.85 733.18 180.82 738.25 181.34C740.19 181.54 740.95 181.12 742.99 178.74C745.82 175.43 746.64 174.69 747.87 174.32C749.46 173.85 750.66 174.2 751.88 175.47C753.14 176.8 753.4 177.95 753.27 181.61C753.11 185.62 752.66 186.58 749.55 189.54C745.49 193.41 738.74 195.84 733.82 195.2ZM675.82 418.83C674.85 418.3 674.03 416.61 673.89 414.85C673.72 412.73 675.27 405.77 676.46 403.28C677.43 401.25 680.64 397.98 682.45 397.18C684.86 396.12 687.45 396.35 690.75 397.93C696.16 400.52 698.13 403.41 698.16 408.82C698.17 411.42 698.12 411.66 697.33 413.39C695.98 416.31 693.95 417.61 691.74 416.95C689.88 416.39 689.58 415.83 689.62 413.02C689.71 406.14 687 403.27 683.82 406.87C682.58 408.29 682.17 409.69 681.96 413.19C681.77 416.62 681.29 417.66 679.51 418.55C678.09 419.26 676.78 419.35 675.82 418.83ZM713.2 281.83C711.16 281.08 709.58 278.72 709.57 276.43C709.57 274.3 708.01 273.5 701.97 272.55C699.02 272.09 698.27 271.75 697.73 270.6C695.96 266.87 697.99 263.89 703.41 262.22C705.54 261.56 706.63 261.56 710.57 262.19C714.66 262.85 716.6 263.79 719.46 266.49C723.07 269.92 723.79 272.93 722.06 277.54C721.39 279.33 720.06 280.86 718.63 281.5C717.17 282.14 714.48 282.31 713.2 281.83ZM684.32 169.74C682.53 167.96 682.35 164.37 683.79 159.45C685.43 153.86 687.31 151.09 690.51 149.51C692.37 148.59 692.5 148.57 695.06 148.58C698.45 148.6 699.96 149.15 702.12 151.15C706.98 155.64 708.13 160.1 705.69 164.96C704.41 167.49 703.47 168.19 701.33 168.19C699.86 168.19 699.49 168.1 698.9 167.59C698.71 167.43 698.58 167.31 698.48 167.17C698.2 166.77 698.22 166.17 698.27 163.9C698.34 161.09 698.29 160.72 697.77 159.69C696.58 157.36 693.99 156.67 692.47 158.28C691.43 159.37 691.17 160.31 690.56 164.93C690.02 169.13 689.76 169.78 688.44 170.34C686.81 171.02 685.39 170.81 684.32 169.74ZM76.23 372.57C78.26 371.97 78.7 371.3 78.66 368.86C78.63 366.57 77.25 362.23 75.47 358.82C73.95 355.89 72.58 349.82 72.58 346.01C72.57 343.99 72.7 342.6 72.94 341.88C73.14 341.29 73.43 340.19 73.59 339.44C73.94 337.81 74.76 336.11 76.19 334.07C76.77 333.24 77.53 332.05 77.89 331.42C78.25 330.79 79.34 329.4 80.31 328.33C83.17 325.18 82.67 324.79 78.48 326.9C72.04 330.13 68.09 334.4 66.53 339.83C66.01 341.63 65.95 342.29 65.98 346.82C66.03 353.7 66.36 355.16 69.2 361.07C69.79 362.3 70.47 364.16 70.7 365.19C70.93 366.22 71.22 367.39 71.35 367.79C71.47 368.19 71.57 369.01 71.57 369.61C71.57 372.53 73.1 373.5 76.23 372.57ZM722.65 325.18C719.45 324.55 711.99 318.83 709.96 315.44C707.93 312.08 707.26 308.27 708.33 306.18C709.69 303.52 713.85 302.23 716.29 303.71C717.48 304.43 717.59 305.01 717.05 307.58C716.52 310.06 716.6 311.45 717.34 312.67C718.8 315.06 722.96 315.32 727.22 313.3C731.92 311.07 734.29 312.32 734.02 316.89C733.71 322.23 728.17 326.27 722.65 325.18ZM720.53 221.63C719.02 220.35 718.92 218.63 720.18 215.61C722.08 211.05 723.96 208.82 727.25 207.25C729.16 206.34 729.26 206.32 732.07 206.33C737.82 206.36 741.09 208.69 742.35 213.68C743.27 217.3 742.49 220.07 740.19 221.37C738.26 222.46 736.44 222.07 734.07 220.04C730.99 217.42 730.23 217.47 725.64 220.6C722.96 222.43 721.77 222.67 720.53 221.63ZM859.82 388.74C862.78 383.73 866.43 379.18 870.64 375.21C864.95 375.48 862.41 375.12 856.4 373.29C853.4 372.37 848.99 374.11 847.91 374.88C846.2 376.1 845.92 378.44 847.07 382.02C847.76 384.19 848.2 384.98 850.66 388.54C851.25 389.4 851.34 389.64 851.28 391.02C852.19 390.65 853.19 390.44 854.32 390.44C855.13 390.44 858.82 389.8 859.82 388.74ZM651.05 577.53C651.37 577.3 651.97 576.37 652.37 575.47C652.77 574.56 653.59 572.8 654.19 571.57C657.95 563.87 657.95 563.45 654.22 563.43C650.24 563.41 649.06 562.48 648.04 558.57C647.11 555.02 647.41 554.03 649.93 552.37C651.6 551.27 652.13 550.48 652.27 548.86C652.43 546.89 651.84 545.79 650.22 545.04C647.88 543.95 645.58 544.55 645.57 546.24C645.57 548.24 644.41 549.8 642.75 550.07C640.35 550.46 639.96 551.45 640.83 555C641.15 556.28 641.61 557.94 641.87 558.69C642.13 559.45 642.5 560.8 642.69 561.69C643.52 565.57 648.77 577.33 649.87 577.77C650.38 577.98 650.43 577.97 651.05 577.53ZM657.65 306.92C654.96 306.14 653.18 300.84 654.18 296.57C655.05 292.82 657.26 289.48 660.12 287.59C666.42 283.4 673.2 284.24 673.2 289.19C673.2 291.9 671.19 294.11 667.65 295.3C663.5 296.69 663 297.28 662.43 301.47C661.76 306.35 660.54 307.75 657.65 306.92ZM735.51 306.42C734.1 306.09 733.36 305.5 732.53 304.03C731.15 301.58 729.71 300.96 724.25 300.43C721.27 300.15 720.88 300.05 720.14 299.37C719.26 298.57 719.2 297.5 719.9 295.47C722.55 287.86 729.56 286.07 735.04 291.63C737.74 294.37 739.07 297.91 739.07 302.38C739.07 305.54 738.74 306.16 736.82 306.56C736.62 306.6 736.02 306.54 735.51 306.42ZM656.9 363.9C656.46 363.75 655.79 363.3 655.4 362.89C654.7 362.16 654.7 362.14 654.7 358.86C654.7 355.72 654.73 355.5 655.42 354.19C656.48 352.17 657.43 351.07 659.24 349.78C664.77 345.83 670.23 346.95 672.86 352.57C673.76 354.48 673.66 355.02 672.12 356.52C670.89 357.71 670.07 358 668.75 357.7C665.4 356.92 664.06 357.54 662.33 360.67C660.64 363.73 659.1 364.64 656.9 363.9ZM423.02 44.64C423.79 43.87 423.24 42.92 419.38 38.36C415.78 34.1 412.51 33.05 403.07 33.09C397.05 33.12 395.52 33.34 391.45 34.8C387.52 36.2 385.43 37.9 386.41 38.89C386.75 39.23 387.02 39.24 388.41 38.99C389.29 38.82 390.9 38.69 392 38.69C393.1 38.69 394.61 38.57 395.35 38.42C397.98 37.89 401.37 38.08 405.37 38.96C408.4 39.62 411.78 40.68 415.45 42.13C416.82 42.67 418.74 43.52 419.7 44.01C421.53 44.96 422.52 45.15 423.02 44.64ZM651.7 340.84C648.32 339.77 646.72 337.63 645.44 332.46C644.11 327.08 644.77 324.28 647.64 323.08C650.61 321.83 653.38 323.58 653.97 327.07C654.26 328.85 654.82 329.85 656.19 331.03C657.11 331.82 657.8 332.71 658.34 333.81C659.42 336.01 659.27 337.14 657.63 338.97C655.78 341.02 654.02 341.58 651.7 340.84ZM566.26 180.25C566.56 179.15 566.48 173.02 566.12 170.57C565.23 164.51 563.23 160.08 559.88 156.76C555.5 152.41 552.69 150.5 549.45 149.66C546.51 148.89 544.6 149.09 544.93 150.13C545.16 150.85 548.19 153.45 549.95 154.43C553.96 156.66 555.95 158.87 558.65 164.07C560.74 168.09 563.67 175.69 564.12 178.25C564.52 180.54 565.83 181.76 566.26 180.25ZM167.29 136.63C167.54 136.04 168.12 134.55 168.57 133.32C169.72 130.14 171.11 127.39 172.32 125.87C172.88 125.15 173.76 123.93 174.27 123.15C178.33 116.92 182.86 112.25 186.95 110.06C190.72 108.04 191.2 107.44 189.05 107.44C185.4 107.44 176.12 112.18 172.01 116.15C168.53 119.5 166.86 123.96 165.93 132.32C165.57 135.49 165.62 136.75 166.13 137.38C166.56 137.91 166.82 137.74 167.29 136.63ZM129.61 560.69C131.52 560.16 131.38 559.21 129.25 558.31C124.07 556.12 121.23 554.41 117.59 551.32C115.56 549.58 115.16 549.08 109.66 541.17C108.14 538.98 107.77 538.62 107.15 538.74C105.21 539.11 106.23 543.75 109.58 549.8C111.59 553.46 115.58 557.57 118.44 558.95C122.09 560.72 126.84 561.45 129.61 560.69ZM55.97 511.42C56.46 511.02 56.41 509.77 55.83 508.1C54.82 505.17 53.69 504.03 49.96 502.21C45.87 500.22 43.22 497.93 41.45 494.84C39.33 491.15 38.51 490.08 37.75 489.99C36.09 489.79 36.29 492.24 38.38 497.52C40.38 502.59 42.21 504.88 46.95 508.2C51.51 511.4 54.65 512.52 55.97 511.42ZM641.95 253.37C639.1 251.75 639.23 249.42 642.35 246.08C646.32 241.83 652.72 240.91 654.7 244.3C656.77 247.84 653.32 251.93 646.98 253.45C644.34 254.08 643.18 254.07 641.95 253.37ZM661.45 529.07C659.12 528.25 657.23 524.58 657.8 521.95C658.47 518.8 659.84 517.19 661.83 517.19C664.84 517.19 666.6 518.06 667.63 520.04C668.42 521.56 668.45 526.8 667.68 527.86C666.58 529.37 663.82 529.9 661.45 529.07ZM580.81 273.27C581.84 271.96 584.39 266.27 585.37 263.07C586.46 259.53 586.49 258.76 585.85 252.21C585.63 250.01 585.15 249.19 584.09 249.19C582.46 249.19 581.45 254.49 582.45 257.78C582.86 259.13 582.71 260.18 581.81 262.47C581.02 264.47 579.07 271.44 579.07 272.25C579.07 273.9 579.93 274.4 580.81 273.27ZM612.69 400.69C612.68 399.42 612.52 399.05 610.53 395.69C608.39 392.1 607.76 391.3 606.59 390.69C606.07 390.42 605.94 390.44 605.65 390.83C605.06 391.65 605.51 393.25 607.34 396.82C609.4 400.82 610.7 402.28 612.07 402.13C612.66 402.07 612.7 401.98 612.69 400.69ZM591.43 295.05C591.93 294.55 591.96 291.75 591.48 290.62C590.68 288.75 587.83 287.3 586.35 288.01C585.41 288.46 585.43 289.03 586.4 290.11C586.87 290.64 587.78 291.88 588.42 292.87C589.97 295.27 590.69 295.79 591.43 295.05ZM592.28 279.5C592.96 277.74 593.19 272.19 592.58 272.19C591.63 272.19 590.55 279.07 591.37 279.89C591.82 280.34 591.98 280.26 592.28 279.5Z"/></svg>
